<svg width="68" height="59" viewBox="0 0 68 59" fill="none" xmlns="http://www.w3.org/2000/svg">
<path d="M33.6113 39.0634C30.408 41.2768 26.543 42.5934 26.2146 42.8651C23.9546 39.6234 21.1146 33.2834 17.0396 32.9284C11.7746 32.4768 0.767969 41.3968 0.667969 43.1068C0.717969 47.7868 8.63797 56.3518 11.0313 57.3668C15.9796 59.2534 20.5846 58.3184 27.2513 55.0751C37.168 50.9451 55.9796 35.6051 61.8846 26.8301C66.3413 21.0234 68.0913 16.7818 67.0346 11.7168C66.588 9.36177 59.6096 0.85677 54.8913 0.00510025C53.1413 -0.203232 41.5396 9.68344 41.0796 14.7968C40.713 18.7668 46.6563 22.5734 49.5613 25.3018C49.2146 25.5734 47.3996 27.9001 44.5263 30.3968C41.1113 33.6468 37.0996 36.6668 33.6113 39.0634Z" fill="#101010"/>
</svg>
